<svg fill="#008000" height="256px" width="256px" version="1.1" id="Layer_1" xmlns="http://www.w3.org/2000/svg" xmlns:xlink="http://www.w3.org/1999/xlink" viewBox="-51.2 -51.2 614.40 614.40" xml:space="preserve" stroke="#008000">

<g id="SVGRepo_bgCarrier" stroke-width="0"/>

<g id="SVGRepo_tracerCarrier" stroke-linecap="round" stroke-linejoin="round"/>

<g id="SVGRepo_iconCarrier"> <g> <g> <path d="M107.216,279.824C48,279.824,0,327.824,0,387.04s48,107.216,107.216,107.216s107.216-48,107.216-107.216 S166.432,279.824,107.216,279.824z M107.216,478.256C56.912,478.256,16,437.328,16,387.04c0-50.288,40.912-91.216,91.216-91.216 c50.288,0,91.216,40.912,91.216,91.216S157.52,478.256,107.216,478.256z"/> </g> </g> <g> <g> <path d="M107.216,17.744C48,17.744,0,65.744,0,124.96c0,59.216,48,107.216,107.216,107.216s107.216-48,107.216-107.216 S166.432,17.744,107.216,17.744z M107.216,216.176C56.912,216.176,16,175.248,16,124.96c0-50.304,40.912-91.216,91.216-91.216 c50.288,0,91.216,40.912,91.216,91.216C198.432,175.248,157.52,216.176,107.216,216.176z"/> </g> </g> <g> <g> <path d="M144.256,79.376l-60.032,66.72L60.992,122.88L49.68,134.192l29.184,29.184c1.504,1.504,3.536,2.336,5.664,2.336 c0.064,0,0.144,0,0.208,0c2.208-0.064,4.288-1.008,5.744-2.64l65.68-72.976L144.256,79.376z"/> </g> </g> <g> <g> <path d="M144.256,341.456L84.208,408.16l-23.216-23.2L49.68,396.272l29.184,29.184c1.504,1.504,3.536,2.336,5.664,2.336 c0.064,0,0.144,0,0.208,0c2.208-0.064,4.288-1.008,5.744-2.64l65.68-72.976L144.256,341.456z"/> </g> </g> <g> <g> <path d="M404.784,279.824c-59.216,0-107.216,48-107.216,107.216s48,107.216,107.216,107.216S512,446.256,512,387.04 S464,279.824,404.784,279.824z M404.784,478.256c-50.288,0-91.216-40.912-91.216-91.216s40.912-91.216,91.216-91.216 S496,336.752,496,387.04C496,437.328,455.088,478.256,404.784,478.256z"/> </g> </g> <g> <g> <polygon points="446.864,356.656 435.552,345.344 404.784,376.096 374.032,345.344 362.72,356.656 393.472,387.408 362.72,418.176 374.032,429.488 404.784,398.72 435.552,429.488 446.864,418.176 416.096,387.408 "/> </g> </g> <g> <g> <path d="M404.784,17.744c-59.216,0-107.216,48-107.216,107.216s48,107.216,107.216,107.216S512,184.176,512,124.96 C512,65.744,464,17.744,404.784,17.744z M404.784,216.176c-50.288,0-91.216-40.912-91.216-91.216 c0-50.304,40.912-91.216,91.216-91.216S496,74.656,496,124.96C496,175.248,455.088,216.176,404.784,216.176z"/> </g> </g> <g> <g> <path d="M441.824,79.376l-60.032,66.72l-23.216-23.216l-11.312,11.312l29.184,29.184c1.504,1.504,3.536,2.336,5.664,2.336 c0.064,0,0.144,0,0.208,0c2.208-0.064,4.288-1.008,5.744-2.64l65.664-72.976L441.824,79.376z"/> </g> </g> </g>

</svg>